# xmcd CD database file
#
# Track frame offsets:
#	150
#	16300
#	27167
#	57262
#	83311
#	105865
#	131598
#	142798
#	160069
#	171320
#	182509
#	201988
#	213214
#	236705
#	251008
#	264031
#
# Disc length: 3859 seconds
#
# Revision: 0
# Processed by: cddbd v1.5.2PL0 Copyright (c) Steve Scherf et al.
# Submitted via: CDex 1.70beta2
#
DISCID=c20f1110
DTITLE=Eric Clapton - The Slow Hand Emotion [CD 2)
DYEAR=1900
DGENRE=Blues
TTITLE0=Little Red Rooster
TTITLE1=Boom Boom
TTITLE2=Smokestack Lightning
TTITLE3=I Wish You Would
TTITLE4=Five Long Year
TTITLE5=She's So Respectable
TTITLE6=For Your Love
TTITLE7=Who Do You Love
TTITLE8=I Got Love If You Want It
TTITLE9=Good Morning Little Schoolgirl
TTITLE10=I'm a Man
TTITLE11=Sweet Music
TTITLE12=23 Hours Too Long
TTITLE13=Out On The Wateer Coast
TTITLE14=You Can't Judge A Book By It's Cover
TTITLE15=Take It Easy, Baby
EXTD=
EXTT0=
EXTT1=
EXTT2=
EXTT3=
EXTT4=
EXTT5=
EXTT6=
EXTT7=
EXTT8=
EXTT9=
EXTT10=
EXTT11=
EXTT12=
EXTT13=
EXTT14=
EXTT15=
PLAYORDER=
